Normalized EMG Linear Envelopes
nRows=54
nColumns=17

endheader
time	        VM	        VL	        RF	       GRA	        TA	   ADDLONG	   SEMIMEM	      BFLH	        GM	        GL	       TFL	   GLUTMAX	   GLUTMED	      PIRI	    OBTINT	        QF	
2.095	  0.045286	  0.032570	  0.189490	  0.101538	  0.062218	  0.037681	  0.028228	  0.035083	  0.034678	  0.010646	  0.043909	  0.042989	  0.206085	  0.231424	  0.212991	  0.070726	
2.0955	  0.044751	  0.031984	  0.185848	  0.100462	  0.061257	  0.037211	  0.029179	  0.035260	  0.035429	  0.010760	  0.042743	  0.042608	  0.204612	  0.230536	  0.213018	  0.071100	
2.096	  0.044218	  0.031404	  0.182231	  0.099416	  0.060311	  0.036754	  0.030171	  0.035465	  0.036197	  0.010887	  0.041596	  0.042229	  0.203130	  0.229628	  0.213039	  0.071489	
2.0965	  0.043690	  0.030829	  0.178641	  0.098402	  0.059379	  0.036312	  0.031205	  0.035699	  0.036981	  0.011028	  0.040465	  0.041851	  0.201640	  0.228700	  0.213054	  0.071895	
2.097	  0.043166	  0.030260	  0.175078	  0.097421	  0.058461	  0.035883	  0.032281	  0.035961	  0.037783	  0.011182	  0.039353	  0.041474	  0.200144	  0.227754	  0.213063	  0.072316	
2.0975	  0.042646	  0.029697	  0.171543	  0.096473	  0.057557	  0.035469	  0.033400	  0.036253	  0.038602	  0.011350	  0.038258	  0.041099	  0.198640	  0.226791	  0.213067	  0.072755	
2.098	  0.042132	  0.029139	  0.168038	  0.095559	  0.056667	  0.035069	  0.034563	  0.036575	  0.039438	  0.011531	  0.037181	  0.040726	  0.197131	  0.225809	  0.213068	  0.073211	
2.0985	  0.041623	  0.028588	  0.164561	  0.094681	  0.055791	  0.034685	  0.035770	  0.036928	  0.040291	  0.011725	  0.036121	  0.040355	  0.195617	  0.224811	  0.213065	  0.073684	
2.099	  0.041120	  0.028044	  0.161116	  0.093840	  0.054929	  0.034315	  0.037023	  0.037313	  0.041161	  0.011933	  0.035079	  0.039987	  0.194097	  0.223796	  0.213059	  0.074176	
2.0995	  0.040624	  0.027506	  0.157701	  0.093036	  0.054080	  0.033961	  0.038321	  0.037730	  0.042047	  0.012154	  0.034054	  0.039621	  0.192573	  0.222765	  0.213052	  0.074687	
2.1	  0.040133	  0.026975	  0.154318	  0.092270	  0.053244	  0.033621	  0.039665	  0.038181	  0.042951	  0.012389	  0.033048	  0.039257	  0.191044	  0.221718	  0.213044	  0.075218	
2.1005	  0.039649	  0.026451	  0.150967	  0.091543	  0.052421	  0.033298	  0.041055	  0.038665	  0.043872	  0.012637	  0.032058	  0.038897	  0.189512	  0.220656	  0.213035	  0.075767	
2.101	  0.039173	  0.025934	  0.147649	  0.090856	  0.051611	  0.032990	  0.042493	  0.039183	  0.044810	  0.012899	  0.031087	  0.038539	  0.187977	  0.219579	  0.213026	  0.076337	
2.1015	  0.038704	  0.025424	  0.144365	  0.090210	  0.050814	  0.032698	  0.043980	  0.039737	  0.045764	  0.013174	  0.030133	  0.038184	  0.186439	  0.218487	  0.213018	  0.076928	
2.102	  0.038242	  0.024922	  0.141114	  0.089606	  0.050029	  0.032422	  0.045514	  0.040326	  0.046736	  0.013463	  0.029196	  0.037833	  0.184898	  0.217382	  0.213012	  0.077539	
2.1025	  0.037788	  0.024427	  0.137897	  0.089044	  0.049256	  0.032163	  0.047098	  0.040951	  0.047724	  0.013766	  0.028277	  0.037485	  0.183354	  0.216263	  0.213007	  0.078172	
2.103	  0.037343	  0.023939	  0.134716	  0.088526	  0.048495	  0.031919	  0.048732	  0.041613	  0.048728	  0.014083	  0.027376	  0.037141	  0.181809	  0.215131	  0.213005	  0.078828	
2.1035	  0.036906	  0.023460	  0.131569	  0.088051	  0.047745	  0.031692	  0.050416	  0.042313	  0.049749	  0.014414	  0.026492	  0.036800	  0.180262	  0.213988	  0.213006	  0.079505	
2.104	  0.036478	  0.022988	  0.128459	  0.087622	  0.047007	  0.031482	  0.052150	  0.043052	  0.050786	  0.014758	  0.025625	  0.036464	  0.178714	  0.212833	  0.213010	  0.080206	
2.1045	  0.036059	  0.022525	  0.125384	  0.087238	  0.046280	  0.031288	  0.053936	  0.043829	  0.051840	  0.015117	  0.024775	  0.036131	  0.177165	  0.211668	  0.213018	  0.080930	
2.105	  0.035650	  0.022070	  0.122345	  0.086900	  0.045563	  0.031111	  0.055774	  0.044646	  0.052910	  0.015489	  0.023943	  0.035802	  0.175615	  0.210493	  0.213029	  0.081677	
2.1055	  0.035250	  0.021623	  0.119343	  0.086610	  0.044858	  0.030951	  0.057663	  0.045502	  0.053995	  0.015876	  0.023128	  0.035477	  0.174066	  0.209309	  0.213045	  0.082450	
2.106	  0.034860	  0.021184	  0.116378	  0.086369	  0.044162	  0.030808	  0.059606	  0.046400	  0.055097	  0.016277	  0.022329	  0.035156	  0.172518	  0.208117	  0.213065	  0.083247	
2.1065	  0.034480	  0.020754	  0.113450	  0.086176	  0.043477	  0.030682	  0.061602	  0.047339	  0.056214	  0.016692	  0.021548	  0.034840	  0.170971	  0.206917	  0.213090	  0.084070	
2.107	  0.034111	  0.020332	  0.110559	  0.086032	  0.042802	  0.030573	  0.063652	  0.048320	  0.057346	  0.017121	  0.020784	  0.034527	  0.169425	  0.205711	  0.213120	  0.084918	
2.1075	  0.033753	  0.019920	  0.107706	  0.085939	  0.042137	  0.030481	  0.065755	  0.049343	  0.058494	  0.017564	  0.020036	  0.034219	  0.167882	  0.204498	  0.213154	  0.085793	
2.108	  0.033405	  0.019516	  0.104891	  0.085898	  0.041482	  0.030407	  0.067913	  0.050409	  0.059658	  0.018022	  0.019305	  0.033916	  0.166343	  0.203279	  0.213193	  0.086694	
2.1085	  0.033069	  0.019121	  0.102115	  0.085908	  0.040837	  0.030350	  0.070126	  0.051518	  0.060836	  0.018494	  0.018590	  0.033617	  0.164807	  0.202056	  0.213236	  0.087623	
2.109	  0.032744	  0.018735	  0.099376	  0.085971	  0.040202	  0.030311	  0.072395	  0.052672	  0.062028	  0.018981	  0.017892	  0.033322	  0.163275	  0.200827	  0.213284	  0.088579	
2.1095	  0.032431	  0.018358	  0.096677	  0.086086	  0.039577	  0.030290	  0.074718	  0.053870	  0.063236	  0.019482	  0.017210	  0.033031	  0.161747	  0.199595	  0.213337	  0.089563	
2.11	  0.032130	  0.017990	  0.094016	  0.086256	  0.038961	  0.030286	  0.077098	  0.055113	  0.064457	  0.019997	  0.016544	  0.032746	  0.160225	  0.198358	  0.213394	  0.090575	
2.1105	  0.031841	  0.017631	  0.091394	  0.086480	  0.038355	  0.030300	  0.079534	  0.056402	  0.065693	  0.020528	  0.015894	  0.032464	  0.158708	  0.197118	  0.213455	  0.091616	
2.111	  0.031564	  0.017282	  0.088812	  0.086760	  0.037759	  0.030331	  0.082027	  0.057737	  0.066943	  0.021073	  0.015260	  0.032187	  0.157198	  0.195876	  0.213520	  0.092686	
2.1115	  0.031300	  0.016942	  0.086268	  0.087094	  0.037173	  0.030381	  0.084576	  0.059118	  0.068206	  0.021632	  0.014641	  0.031915	  0.155694	  0.194631	  0.213588	  0.093785	
2.112	  0.031049	  0.016612	  0.083764	  0.087485	  0.036596	  0.030448	  0.087182	  0.060546	  0.069483	  0.022207	  0.014038	  0.031647	  0.154196	  0.193384	  0.213660	  0.094913	
2.1125	  0.030811	  0.016291	  0.081300	  0.087933	  0.036029	  0.030533	  0.089846	  0.062022	  0.070773	  0.022796	  0.013451	  0.031383	  0.152706	  0.192135	  0.213736	  0.096071	
2.113	  0.030585	  0.015979	  0.078874	  0.088438	  0.035472	  0.030636	  0.092567	  0.063545	  0.072076	  0.023401	  0.012878	  0.031124	  0.151223	  0.190887	  0.213814	  0.097260	
2.1135	  0.030374	  0.015678	  0.076489	  0.089001	  0.034924	  0.030757	  0.095346	  0.065117	  0.073391	  0.024020	  0.012321	  0.030870	  0.149748	  0.189638	  0.213894	  0.098478	
2.114	  0.030175	  0.015385	  0.074142	  0.089621	  0.034386	  0.030896	  0.098183	  0.066737	  0.074720	  0.024655	  0.011779	  0.030620	  0.148281	  0.188390	  0.213975	  0.099727	
2.1145	  0.029991	  0.015103	  0.071835	  0.090301	  0.033858	  0.031053	  0.101078	  0.068406	  0.076060	  0.025305	  0.011251	  0.030375	  0.146823	  0.187143	  0.214059	  0.101007	
2.115	  0.029820	  0.014830	  0.069568	  0.091039	  0.033340	  0.031228	  0.104031	  0.070125	  0.077412	  0.025970	  0.010738	  0.030135	  0.145373	  0.185897	  0.214143	  0.102318	
2.1155	  0.029663	  0.014567	  0.067340	  0.091838	  0.032831	  0.031420	  0.107042	  0.071894	  0.078776	  0.026651	  0.010240	  0.029900	  0.143932	  0.184654	  0.214227	  0.103661	
2.116	  0.029520	  0.014314	  0.065151	  0.092696	  0.032333	  0.031631	  0.110112	  0.073712	  0.080151	  0.027347	  0.009755	  0.029669	  0.142501	  0.183413	  0.214311	  0.105035	
2.1165	  0.029392	  0.014071	  0.063001	  0.093614	  0.031844	  0.031859	  0.113240	  0.075582	  0.081537	  0.028058	  0.009285	  0.029444	  0.141078	  0.182174	  0.214396	  0.106441	
2.117	  0.029278	  0.013838	  0.060890	  0.094593	  0.031365	  0.032105	  0.116426	  0.077502	  0.082934	  0.028785	  0.008829	  0.029224	  0.139665	  0.180939	  0.214479	  0.107880	
2.1175	  0.029178	  0.013614	  0.058819	  0.095634	  0.030896	  0.032369	  0.119671	  0.079473	  0.084341	  0.029528	  0.008386	  0.029009	  0.138262	  0.179708	  0.214562	  0.109351	
2.118	  0.029093	  0.013401	  0.056786	  0.096735	  0.030438	  0.032651	  0.122974	  0.081496	  0.085757	  0.030286	  0.007957	  0.028800	  0.136868	  0.178480	  0.214644	  0.110855	
2.1185	  0.029022	  0.013197	  0.054792	  0.097898	  0.029989	  0.032950	  0.126335	  0.083570	  0.087183	  0.031060	  0.007542	  0.028596	  0.135484	  0.177257	  0.214724	  0.112392	
2.119	  0.028967	  0.013004	  0.052836	  0.099123	  0.029551	  0.033267	  0.129755	  0.085697	  0.088618	  0.031850	  0.007139	  0.028397	  0.134110	  0.176037	  0.214802	  0.113963	
2.1195	  0.028926	  0.012820	  0.050919	  0.100411	  0.029124	  0.033602	  0.133233	  0.087876	  0.090062	  0.032656	  0.006750	  0.028205	  0.132746	  0.174822	  0.214879	  0.115567	
2.12	  0.028900	  0.012647	  0.049040	  0.101760	  0.028706	  0.033953	  0.136769	  0.090107	  0.091514	  0.033477	  0.006373	  0.028018	  0.131393	  0.173612	  0.214954	  0.117205	
2.1205	  0.028890	  0.012484	  0.047198	  0.103172	  0.028299	  0.034323	  0.140362	  0.092391	  0.092974	  0.034314	  0.006010	  0.027838	  0.130049	  0.172407	  0.215026	  0.118877	
2.121	  0.028895	  0.012330	  0.045395	  0.104647	  0.027902	  0.034709	  0.144013	  0.094728	  0.094442	  0.035168	  0.005658	  0.027663	  0.128716	  0.171207	  0.215096	  0.120582	
2.1215	  0.028915	  0.012187	  0.043629	  0.106185	  0.027516	  0.035113	  0.147721	  0.097117	  0.095917	  0.036037	  0.005319	  0.027495	  0.127393	  0.170012	  0.215164	  0.122322	
